<svg t="1699698021247" class="icon" viewBox="0 0 1024 1024" version="1.1" xmlns="http://www.w3.org/2000/svg" p-id="1416" width="200" height="200"><path d="M511.3856 1.2288C228.920889 1.2288 0 229.922133 0 511.977244s228.920889 510.748444 511.3856 510.748445c282.487467 0 511.3856-228.693333 511.3856-510.748445S793.850311 1.2288 511.3856 1.2288z m285.058844 705.422222H231.879111s-9.739378-68.266667 0-68.266666H796.444444v68.266666z m0-113.777778H227.555556v-49.607111c0-152.962844 117.873778-220.182756 266.672355-229.489777-0.113778 1.479111 0-94.503822 0-94.503823l-39.139555 22.528c-9.807644 0-14.199467-30.651733-14.199467-40.595911 0-9.944178 7.964444-17.931378 17.772089-17.931378h106.678044c9.8304 0 17.772089 7.9872 17.772089 17.931378 0 9.944178-4.391822 40.573156-14.222222 40.573156l-39.1168-22.528v94.526578C678.570667 323.128889 796.444444 390.303289 796.444444 543.266133v49.607111z" fill="currentColor" p-id="1417"></path></svg>