<svg t="1699696379098" class="icon" viewBox="0 0 1024 1024" version="1.1" xmlns="http://www.w3.org/2000/svg" p-id="1604" width="200" height="200"><path d="M527.519973 50.133817c-245.445108 0-445.138196 199.693088-445.138196 445.138196 0 245.417479 199.693088 445.163779 445.138196 445.163779 245.444085 0 445.138196-199.7463 445.138196-445.163779C972.65817 249.826905 772.965082 50.133817 527.519973 50.133817zM525.672906 625.955378l0-44.557822 89.00615 0 0-89.00615 44.556798 0 0 89.00615 89.00615 0 0 44.557822-89.00615 0 0 89.00615-44.556798 0 0-89.00615L525.672906 625.955378zM682.003394 435.065793c-10.379395-1.303692-20.86726-2.553149-31.732725-2.553149-45.644573 0-87.920422 11.465123-122.805954 30.755468-4.944616 0.161682-9.671267 0.596588-14.671141 0.596588-130.141012 0-235.665371-42.166355-235.665371-94.167706l0-31.461549c0-52.001351 105.524358-94.167706 235.665371-94.167706 130.139989 0 235.664348 42.166355 235.664348 94.167706l0 31.461549C748.458945 395.128199 723.028762 418.11268 682.003394 435.065793zM485.7875 494.403227c-18.201547 17.280572-32.003901 37.22174-40.643676 59.283198-96.938819-11.683087-168.014598-47.221488-168.014598-89.820702l0-52.978609C277.129226 459.192284 368.525819 490.273163 485.7875 494.403227zM436.775226 585.202209c-0.978281 6.683213-2.554172 13.150508-2.554172 19.996426 0 14.671141 2.990101 28.689413 7.281847 42.274826-95.092775-12.172227-164.373675-47.327912-164.373675-89.38682l0-52.978609C277.129226 546.458813 344.129176 575.040778 436.775226 585.202209zM277.129226 599.329974c0 44.339858 76.942393 74.225515 180.185802 82.10395 15.974833 25.811876 39.339983 48.089251 68.520583 64.580854-4.40124 0.10847-8.584516 0.543376-13.041014 0.543376-130.141012 0-235.665371-42.191938-235.665371-94.195336L277.129226 599.329974z" p-id="1605" fill="currentColor"></path></svg>